<svg viewBox="0 0 512 512" xmlns="http://www.w3.org/2000/svg" xmlns:xlink="http://www.w3.org/1999/xlink" width="512.000000" height="512.000000" fill="none">
	<rect id="icon-nobg-svg" width="512.000000" height="512.000000" x="0.000000" y="0.000000" />
	<path id="矢量 5" d="M389.701 413.743C366.184 433.105 339.846 445.479 310.121 450.658C283.92 455.223 258.081 453.452 232.484 446.72C221.047 443.713 209.859 439.978 198.912 435.444C185.872 430.042 177.684 420.764 177.006 406.569C176.349 392.826 183.365 382.832 195.235 376.166C195.959 375.76 196.701 375.382 197.404 374.941C197.672 374.773 197.854 374.466 198.423 373.84C195.487 369.041 191.096 365.518 186.71 362.053C178.609 355.655 170.14 349.72 162.647 342.565C151.975 332.374 143.604 320.705 139.79 306.253C134.189 285.029 140.561 266.872 154.564 250.858C161.302 243.152 169.282 236.844 177.953 231.471C180.715 229.76 181.864 227.803 181.708 224.592C181.235 214.872 182.163 205.3 185.606 196.11C191.824 179.511 208.226 169.79 225.632 172.499C229.338 173.075 230.753 172.057 230.733 168.164C230.657 153.178 230.453 138.183 231.678 123.223C232.533 112.789 232.443 102.218 234.845 91.9908C241.317 64.4421 269.409 52.5028 292.124 67.6263C304.306 75.7372 308.23 88.1972 309.289 102.045C311.092 125.629 311.227 149.271 311.922 172.893C312.032 176.613 312.938 177.655 316.949 177.079C332.603 174.831 346.42 181.949 353.941 195.999C355.573 199.047 357.012 199.802 360.49 199.141C380.381 195.361 398.037 209.067 400.19 230.194C402.502 252.883 404.003 275.614 401.414 298.431C400.233 308.838 396.852 318.501 392.673 327.952C389.646 334.801 386.354 341.532 383.212 348.331C381.959 351.042 381.135 353.88 380.724 357.169C384.969 356.786 388.919 355.886 392.774 356.19C402.14 356.93 409.286 361.547 412.795 370.445C416.201 379.083 415.131 387.629 409.555 395.059C404.131 402.284 396.862 407.739 389.701 413.743ZM258.236 154.501C258.234 164.664 258.108 174.829 258.257 184.99C258.537 204.139 259.101 223.286 259.296 242.436C259.388 251.548 252.212 257.195 243.337 255.506C236.057 254.12 232.538 249.626 232.084 240.685C231.553 230.208 231.336 219.715 230.739 209.243C230.348 202.391 225.984 198.579 219.724 199.102C214.052 199.575 209.784 204.349 209.43 211.898C208.751 226.374 209.02 240.86 209.759 255.346C210.311 266.15 210.656 276.988 210.449 287.799C210.299 295.663 203.653 301.352 196.291 300.965C188.827 300.573 183.802 295.053 183.633 287C183.57 284.002 183.746 280.994 183.574 278.005C183.286 272.983 182.806 267.972 182.378 262.586C169.569 271.063 163.099 286.183 166.672 298.839C169.224 307.88 174.573 315.248 181.25 321.764C189.272 329.59 198.517 335.894 207.174 342.928C215.408 349.617 222.974 356.965 226.796 367.077C229.131 373.256 233.425 376.309 239.392 377.839C241.646 378.416 243.849 379.204 246.117 379.71C267.012 384.378 288.088 384.292 309.161 381.489C321.738 379.817 333.973 376.593 345.372 370.733C348.471 369.139 351.284 367.18 351.482 363.438C352.325 347.533 358.951 333.551 365.775 319.626C370.504 309.975 373.81 299.937 374.687 289.154C376.027 272.656 374.495 256.225 373.498 239.792C373.281 236.217 373.272 232.418 371.461 229.078C368.82 224.206 363.696 224.112 360.83 228.87C359.87 230.463 359.367 232.182 359.277 234.071C359.024 239.393 358.674 244.71 358.366 250.028C357.796 259.884 348.37 265.658 339.319 261.692C333.039 258.941 330.358 253.271 331.094 244.581C331.953 234.442 332.16 224.309 330.793 214.181C329.918 207.697 326.896 203.907 322.098 203.63C317.241 203.35 313.084 207.203 311.988 213.493C310.55 221.749 311.498 230.114 311.255 238.428C311.172 241.271 311.116 244.078 310.144 246.796C307.929 252.99 301.999 256.697 295.677 255.8C288.403 254.768 283.738 249.91 283.721 242.771C283.693 231.277 283.621 219.767 284.14 208.29C285.646 174.964 284.323 141.694 282.504 108.435C282.262 104.006 281.868 99.4331 280.169 95.2085C278.55 91.181 275.636 88.4677 271.139 88.5014C266.647 88.535 263.756 91.1814 262.295 95.3577C261.858 96.6085 261.497 97.9099 261.301 99.2181C258.602 117.216 258.353 135.355 258.236 154.501Z" fill="rgb(0,0,0)" fill-rule="nonzero" />
	<path id="矢量 6" d="M144.863 98.1359C153.103 106.145 161.117 113.88 169.07 121.676C175.731 128.205 176.265 136.617 170.479 142.431C164.934 148.002 156.387 147.588 150.011 141.389C138.687 130.382 127.368 119.369 116.083 108.322C109.729 102.102 109.182 94.2256 114.597 88.2893C120.134 82.2186 128.166 82.2504 134.965 88.494C138.27 91.5282 141.401 94.7512 144.863 98.1359Z" fill="rgb(0,0,0)" fill-rule="nonzero" />
	<path id="矢量 7" d="M210.036 107.343C210.547 118.778 202.698 125.979 193.135 123.317C188.048 121.901 184.8 118.602 183.699 113.413C181.048 100.921 178.33 88.4405 175.926 75.9003C174.464 68.2747 179.333 61.4576 186.791 59.9397C193.982 58.4761 200.753 62.7629 202.434 70.3651C205.118 82.5086 207.457 94.7283 210.036 107.343Z" fill="rgb(0,0,0)" fill-rule="nonzero" />
	<path id="矢量 8" d="M97.188 174.215C89.8012 169.887 87.4361 164.258 89.8291 157.427C92.0345 151.131 98.5104 147.561 106.019 148.934C117.611 151.055 129.179 153.326 140.711 155.755C149.601 157.628 153.681 163.782 152.235 172.526C151.109 179.335 144.516 183.604 136.098 182.108C123.198 179.817 110.397 176.969 97.188 174.215Z" fill="rgb(0,0,0)" fill-rule="nonzero" />
</svg>
